<?xml version="1.0" encoding="utf-8"?>
<!-- Generator: Adobe Illustrator 28.0.0, SVG Export Plug-In . SVG Version: 6.00 Build 0)  -->
<svg version="1.1" id="Layer_1" xmlns="http://www.w3.org/2000/svg" xmlns:xlink="http://www.w3.org/1999/xlink" x="0px" y="0px"
	 viewBox="0 0 311.2 263.7" style="enable-background:new 0 0 311.2 263.7;" xml:space="preserve">
<style type="text/css">
	.st0{fill:#235AA5;}
	.st1{fill:#007BFF;}
</style>
<path class="st0" d="M125.2,117.5c5.4-14.1,15.2-21.7,27.6-21.3c-0.7,1.4-1.4,2.7-2,3.9c-5.9,10.7-3.9,23.4,5,30.7
	c8.6,7.1,19.9,6.9,29.5-1.4c16.8-14.6,33.3-29.5,49.9-44.3c2.7-2.4,5.5-4.8,7.7-7.7c3.5-4.8,2.5-10.3-1.8-13.7
	c-4.7-3.7-8.4-3.4-13.2,1.3c-16.6,16.1-33.1,32.1-49.8,48.1c-2.7,2.5-5.3,6.3-9.8,4.1c-4.6-2.3-5-6.7-4.5-11.2
	c0.8-6.4,4.1-11.4,8.8-15.7c23.1-21.3,46.2-42.5,69.3-63.8c6.4-5.9,12.5-11.9,19-17.6c8.8-7.9,18.8-11,30.4-6.7
	c11.4,4.2,17.6,12.8,19.5,24.4c1.4,8.4-0.5,16.5-6.3,22.7c-7.4,8-15.6,15.4-23.7,22.6c-23.1,20.5-46.3,40.9-69.5,61.3
	c-5.6,4.9-11.4,9.7-16.9,14.7c-10.3,9.3-22.4,12.5-36.5,10.5C155,138.4,143.1,125.5,125.2,117.5z M281.2,16.8
	c-7.4-0.1-14.1,6.1-14.3,13.1c-0.2,7.6,6.1,14.2,13.6,14.4c7.5,0.2,14.3-6.2,14.5-13.5C295.3,23.1,289.1,16.8,281.2,16.8z"/>
<path class="st1" d="M60.9,135.5c-11.8,0-22,0-32.3,0c-2.1-34,14-84.3,60.1-113.1c41.1-25.7,93.6-21.5,119.2-5.5
	c-7.6,8-15.2,16.2-23,24c-0.9,0.9-3.7,0.5-5.4,0c-31-8.8-59.2-2.7-84.4,16.9c-20.6,16-31,38-34.1,63.5
	C60.4,125.8,60.9,130.4,60.9,135.5z"/>
<path class="st1" d="M277.5,133.3c-2.2,44.5-20.2,79.7-57.2,102.9c-35.6,22.3-74,23.3-114.4,8.9c6.6-6.4,12.6-11.6,17.8-17.6
	c5.4-6.2,10.9-8.9,19.7-7.3c16,2.9,31.7-0.1,46.9-5.8c30.3-11.4,53.1-42.8,54.4-75.2c0.1-1.8,0-3.6,0-5.9
	C255.8,133.3,266.3,133.3,277.5,133.3z"/>
<path class="st1" d="M139.2,165.6c0.6,12.2-4.8,21.7-13.6,29.7c-16.7,15.4-33.2,31-50.1,46.1c-7.5,6.7-15,13.9-23.8,18.5
	c-24,12.5-50.1-8.4-51.6-31.1c-0.8-11.9,4-21.6,12.3-29.3c22.4-20.8,44.9-41.4,67.9-61.4c18.6-16.1,42.6-10,53.9,8.6
	c3.3,5.4,4.3,12.2,6.4,18.4C140.1,165.3,139.7,165.5,139.2,165.6z M11.1,228.8c-0.3,4.8,2.4,10.4,7,15c10.9,10.9,26.3,10.9,38.8-0.3
	c10-9,19.7-18.3,29.6-27.4c11.8-10.9,24.1-21.4,35.5-32.7c9.9-9.8,9.4-24.5,0.1-34.5c-8.7-9.3-24.1-10.6-34.4-2.6
	c-3.8,2.9-7.3,6.3-10.9,9.5c-19.2,17.4-38.4,34.7-57.4,52.2C14,213,10.6,219.1,11.1,228.8z"/>
<path class="st0" d="M184.2,66.1c-6.8,5.9-12.6,11.1-18.5,16.1c-0.8,0.7-2.4,0.9-3.4,0.7c-24.6-4.4-43.6,5.6-53.2,28
	c-0.5,1.1-1.8,2.4-2.9,2.6c-7.1,1.2-14.3,2.1-22,3.2c3-19.2,12.5-35.1,29.1-46.1C135.4,56,158.9,54.6,184.2,66.1z"/>
<path class="st0" d="M222.4,135c0.3,44.1-39,70.6-73.6,63.4c2.8-7.8,5.5-15.6,8.5-23.4c0.3-0.8,1.9-1.7,2.9-1.6
	c17.1,0.5,30.8-6.4,42.4-18.5C208.8,148.3,215.3,142,222.4,135z"/>
<path class="st1" d="M103.5,172.1c-1.3,1.7-2.5,3.9-4.2,5.5c-13.3,12.3-26.7,24.4-40,36.6c-3.2,2.9-6.2,6-9.2,9.1
	c-2.8,2.8-6,4.6-9.6,1.7c-2.5-2-1.6-6.6,2.1-10.1c7.4-7.1,15-14.1,22.5-21.1c9-8.3,18-16.7,27.1-24.9c3.6-3.3,8.1-3.5,10-0.6
	C102.7,169.1,102.8,170.3,103.5,172.1z"/>
</svg>
